<svg xmlns="http://www.w3.org/2000/svg"
xmlns:xlink="http://www.w3.org/1999/xlink" version="1.1" x="0px" y="0px"
viewBox="3.0870003700256348 0 93.82599639892578 100.0009994506836"
enable-background="new 0 0 100 100" xml:space="preserve" fill="#19A974"><g><polygon
points="48.92,50.541 49.742,51.208 50.321,50.496 50.878,51.224 51.719,50.58
51.221,49.93 52.006,49.696 51.704,48.681    51.368,48.781 51.362,48.048
50.303,48.057 50.311,49.081 48.969,48.669 48.659,49.682 49.426,49.917
"></polygon><rect x="38.917" y="61.302" transform="matrix(0.7764 0.6302 -0.6302
0.7764 48.5538 -10.7637)" width="1.059" height="3.484"></rect><rect x="41.365"
y="58.007" transform="matrix(0.6305 -0.7762 0.7762 0.6305 -29.5078 55.0912)"
width="3.484" height="1.059"></rect><rect x="45.026" y="53.5"
transform="matrix(0.6306 -0.7761 0.7761 0.6306 -24.6567 56.2598)" width="3.485"
height="1.06"></rect><polygon points="37.294,66.534 36.472,65.866 35.628,66.904
34.291,66.909 34.295,67.968 35.883,67.962 35.881,67.433    36.292,67.766
"></polygon><rect x="55.405" y="57.919" transform="matrix(0.6083 0.7937 -0.7937
0.6083 68.7457 -22.4141)" width="3.357" height="1.059"></rect><rect x="58.808"
y="62.358" transform="matrix(0.6084 0.7936 -0.7936 0.6084 73.5942 -23.3775)"
width="3.356" height="1.059"></rect><rect x="52.003" y="53.479"
transform="matrix(0.6084 0.7936 -0.7936 0.6084 63.8829 -21.4532)" width="3.356"
height="1.059"></rect><rect x="53.589" y="47.727" transform="matrix(-0.9585
0.2851 -0.2851 -0.9585 121.4565 78.8345)" width="2.804"
height="1.059"></rect><rect x="67.026" y="43.733" transform="matrix(0.9586
-0.2849 0.2849 0.9586 -9.7752 21.3311)" width="2.804" height="1.06"></rect><rect
x="58.068" y="46.395" transform="matrix(-0.9586 0.2849 -0.2849 -0.9586 129.843
74.9651)" width="2.804" height="1.06"></rect><rect x="50.183" y="30.08"
transform="matrix(1 -0.0078 0.0078 1 -0.2483 0.3984)" width="1.059"
height="3.594"></rect><rect x="49.004" y="43.329" transform="matrix(0.0075 1 -1
0.0075 94.2794 -7.2687)" width="3.594" height="1.059"></rect><rect x="48.96"
y="37.339" transform="matrix(-0.0076 -1 1 -0.0076 13.2759 88.9116)"
width="3.594" height="1.059"></rect><rect x="37.534" y="45.73"
transform="matrix(-0.9562 -0.2927 0.2927 -0.9562 63.3232 101.9934)"
width="3.515" height="1.059"></rect><rect x="43.135" y="47.446"
transform="matrix(0.9562 0.2928 -0.2928 0.9562 16.0168 -11.0431)" width="3.515"
height="1.059"></rect><rect x="31.932" y="44.015" transform="matrix(-0.9562
-0.2928 0.2928 -0.9562 52.8579 97.0012)" width="3.515"
height="1.059"></rect><polygon points="38.695,36.577 39.696,36.921 40.086,35.786
41.286,35.815 41.312,34.756 40.431,34.734 40.699,33.895    39.69,33.573
39.207,35.086 39.207,35.086  "></polygon><rect x="37.487" y="38.627"
transform="matrix(-0.9455 -0.3256 0.3256 -0.9455 60.8761 90.5541)" width="1.059"
height="3.112"></rect><rect x="34.118" y="48.437" transform="matrix(-0.9455
-0.3256 0.3256 -0.9455 51.1271 108.5421)" width="1.059"
height="3.112"></rect><rect x="35.802" y="43.532" transform="matrix(-0.9455
-0.3256 0.3256 -0.9455 56.0015 99.5483)" width="1.059"
height="3.112"></rect><polygon points="33.957,56.268 34.56,55.397 33.583,54.721
33.969,53.598 32.968,53.254 32.688,54.068 31.998,53.551 31.363,54.4
32.635,55.352 32.952,54.928 32.651,55.363  "></polygon><rect x="40.057"
y="60.417" transform="matrix(0.822 0.5695 -0.5695 0.822 42.1222 -12.8663)"
width="3.17" height="1.059"></rect><rect x="35.714" y="57.409"
transform="matrix(0.822 0.5694 -0.5694 0.822 39.6298 -10.9284)" width="3.17"
height="1.059"></rect><rect x="44.401" y="63.425" transform="matrix(0.8222
0.5692 -0.5692 0.8222 44.5746 -14.804)" width="3.17"
height="1.059"></rect><polygon points="50.636,67.398 51.938,66.489 51.332,65.621
50.332,66.319 49.328,65.625 48.725,66.495 49.41,66.969 48.73,67.451
49.343,68.314 50.636,67.398  "></polygon><rect x="53.951" y="62.58"
transform="matrix(-0.5721 -0.8202 0.8202 -0.5721 33.105 145.4067)" width="1.059"
height="2.976"></rect><rect x="61.125" y="57.862" transform="matrix(0.8199
-0.5724 0.5724 0.8199 -22.1524 46.3565)" width="2.975"
height="1.059"></rect><rect x="58.017" y="59.742" transform="matrix(0.5716
0.8205 -0.8205 0.5716 75.3222 -21.8088)" width="1.059"
height="2.975"></rect><polygon points="64.492,45.986 65.444,45.703 65.142,44.687
64.19,44.97 63.904,44.006 62.889,44.307 63.175,45.272 62.454,45.486
62.756,46.502 63.477,46.288 63.763,47.252 64.778,46.951  "></polygon><rect
x="63.754" y="50.008" transform="matrix(0.2845 0.9587 -0.9587 0.2845 95.1649
-26.4322)" width="3.072" height="1.059"></rect><rect x="61.847" y="39.184"
transform="matrix(-0.9589 0.2837 -0.2837 -0.9589 133.7421 62.0737)"
width="1.059" height="3.073"></rect><rect x="54.017" y="35.104"
transform="matrix(0.9997 0.0244 -0.0244 0.9997 0.8863 -1.3467)" width="3.181"
height="1.059"></rect><rect x="44.479" y="33.786" transform="matrix(-0.0244
0.9997 -0.9997 -0.0244 81.4729 -8.7559)" width="1.06" height="3.18"></rect><rect
x="48.718" y="34.975" transform="matrix(0.9997 0.0243 -0.0243 0.9997 0.8759
-1.2096)" width="3.181" height="1.059"></rect><rect x="23.448" y="84.856"
transform="matrix(-0.5783 -0.8158 0.8158 -0.5783 -32.0303 154.7441)"
width="1.059" height="1.588"></rect><rect x="35.169" y="76.008"
transform="matrix(0.8158 -0.5784 0.5784 0.8158 -37.4808 35.4013)" width="3.326"
height="1.058"></rect><polygon points="28.84,81.554 28.653,81.687 27.572,80.981
26.994,81.869 27.725,82.345 26.127,83.477 26.74,84.341 28.678,82.967
29.713,83.642 30.292,82.755 29.175,82.027  "></polygon><rect x="44.21"
y="69.597" transform="matrix(0.8158 -0.5784 0.5784 0.8158 -32.1076 39.4493)"
width="3.326" height="1.058"></rect><rect x="39.689" y="72.802"
transform="matrix(0.8158 -0.5783 0.5783 0.8158 -34.7931 37.4226)" width="3.325"
height="1.059"></rect><rect x="30.648" y="79.213" transform="matrix(0.8158
-0.5783 0.5783 0.8158 -40.1659 33.3745)" width="3.325"
height="1.058"></rect><rect x="76.588" y="84.832" transform="matrix(-0.3353
-0.9421 0.9421 -0.3353 22.9142 186.8878)" width="1.589"
height="1.058"></rect><rect x="68.038" y="58.944" transform="matrix(-0.9423
0.3348 -0.3348 -0.9423 153.4587 94.6899)" width="1.059"
height="3.257"></rect><rect x="71.675" y="69.174" transform="matrix(-0.9422
0.3351 -0.3351 -0.9422 163.9619 113.315)" width="1.059"
height="3.257"></rect><rect x="75.314" y="79.404" transform="matrix(0.9422
-0.3351 0.3351 0.9422 -22.7695 30.1012)" width="1.059"
height="3.257"></rect><rect x="69.856" y="64.059" transform="matrix(0.9423
-0.3347 0.3347 0.9423 -17.9263 27.3468)" width="1.059"
height="3.258"></rect><polygon points="66.794,57.169 67.792,56.815 67.265,55.332
66.817,53.822 65.802,54.124 66.145,55.28 65.156,55.97 65.762,56.839
66.495,56.327  "></polygon><polygon points="60.913,35.232 59.33,35.193
59.305,36.252 60.507,36.282 60.849,37.435 61.865,37.134 61.613,36.284
62.499,36.274 62.488,35.215  "></polygon><rect x="64.708" y="35.174"
transform="matrix(0.9999 -0.0106 0.0106 0.9999 -0.374 0.7041)" width="3.323"
height="1.059"></rect><rect x="87.992" y="33.806" transform="matrix(0.0106
0.9999 -0.9999 0.0106 123.0489 -53.4251)" width="1.059"
height="3.323"></rect><rect x="71.379" y="33.984" transform="matrix(0.0111
0.9999 -0.9999 0.0111 106.7548 -36.6536)" width="1.059"
height="3.322"></rect><rect x="75.785" y="35.056" transform="matrix(-0.9999
0.0107 -0.0107 -0.9999 155.2694 70.3391)" width="3.323"
height="1.059"></rect><rect x="92.663" y="34.623" transform="matrix(0.0106
0.9999 -0.9999 0.0106 127.6197 -58.1454)" width="1.059"
height="1.589"></rect><rect x="49.26" y="2.889" transform="matrix(0.9527 0.3039
-0.3039 0.9527 3.474 -14.9561)" width="1.059" height="1.588"></rect><rect
x="44.342" y="17.378" transform="matrix(0.9527 0.304 -0.304 0.9527 7.9267
-12.7383)" width="1.058" height="3.417"></rect><rect x="40.878" y="28.228"
transform="matrix(0.9527 0.304 -0.304 0.9527 11.0614 -11.1715)" width="1.058"
height="3.417"></rect><rect x="47.806" y="6.529" transform="matrix(0.9527 0.304
-0.304 0.9527 4.7924 -14.3051)" width="1.058" height="3.417"></rect><polygon
points="46.587,15.451 47.411,12.871 48.846,12.849 48.83,11.791 45.804,11.835
45.82,12.894 46.295,12.887 45.579,15.129     "></polygon><rect x="42.609"
y="22.803" transform="matrix(-0.9527 -0.304 0.304 -0.9527 76.7833 60.9778)"
width="1.058" height="3.417"></rect><rect x="6.253" y="34.994"
transform="matrix(0.8003 0.5996 -0.5996 0.8003 22.7073 2.8685)" width="1.589"
height="1.059"></rect><rect x="22.46" y="47.787" transform="matrix(-0.8004
-0.5995 0.5995 -0.8004 14.4729 101.4527)" width="3.331"
height="1.059"></rect><rect x="9.128" y="37.8" transform="matrix(0.8004 0.5995
-0.5995 0.8004 25.1346 1.1812)" width="3.331" height="1.06"></rect><rect
x="18.016" y="44.458" transform="matrix(-0.8003 -0.5996 0.5996 -0.8003 8.4616
92.7925)" width="3.332" height="1.059"></rect><polygon points="16.253,43.081
16.889,42.233 14.222,40.236 13.587,41.084 13.644,41.126 13.149,40.983
12.286,43.971    13.303,44.265 14.11,41.475  "></polygon><rect x="26.904"
y="51.116" transform="matrix(-0.8003 -0.5996 0.5996 -0.8003 20.4718 110.1086)"
width="3.332" height="1.06"></rect><polygon points="21.978,14.278 22.872,14.094
22.695,13.239 23.628,13.225 23.612,12.166 22.024,12.189 22.031,12.646
21.793,12.695 21.369,12.572 20.927,14.097 21.944,14.392  "></polygon><rect
x="15.992" y="27.158" transform="matrix(0.2779 -0.9606 0.9606 0.2779 -13.9263
36.8491)" width="3.11" height="1.059"></rect><rect x="15.577" y="31.112"
transform="matrix(0.9605 0.2784 -0.2784 0.9605 9.7301 -3.1924)" width="1.059"
height="3.11"></rect><rect x="19.898" y="16.175" transform="matrix(0.9609 0.277
-0.277 0.9609 5.71 -4.9643)" width="1.06" height="3.11"></rect><rect x="6.936"
y="60.985" transform="matrix(-0.9608 -0.2771 0.2771 -0.9608 -2.6907 124.6994)"
width="1.059" height="3.11"></rect><rect x="9.817" y="51.027"
transform="matrix(0.9606 0.2779 -0.2779 0.9606 15.0226 -0.8038)" width="1.059"
height="3.109"></rect><rect x="7.351" y="57.031" transform="matrix(-0.2779
0.9606 -0.9606 -0.2779 66.674 65.0028)" width="3.11" height="1.059"></rect><rect
x="14.137" y="36.09" transform="matrix(0.9606 0.2779 -0.2779 0.9606 11.0413
-2.5932)" width="1.059" height="3.11"></rect><rect x="11.256" y="46.048"
transform="matrix(-0.9607 -0.2775 0.2775 -0.9607 9.8981 96.6065)" width="1.059"
height="3.11"></rect><rect x="18.458" y="21.154" transform="matrix(0.9605 0.2784
-0.2784 0.9605 7.072 -4.3879)" width="1.059" height="3.11"></rect><polygon
points="7.606,67.955 7.602,67.015 6.721,67.018 6.966,66.172 5.949,65.877
5.507,67.403 6.016,67.55 5.727,67.994    7.058,69.325 7.571,69 7,69 7,68.02
7.333,67.975  "></polygon><rect x="17.957" y="75.869" transform="matrix(-0.8374
-0.5466 0.5466 -0.8374 -5.7784 151.08)" width="3.247" height="1.06"></rect><rect
x="40.613" y="90.65" transform="matrix(-0.8375 -0.5464 0.5464 -0.8375 27.7934
190.623)" width="3.247" height="1.059"></rect><rect x="36.083" y="87.695"
transform="matrix(-0.8376 -0.5462 0.5462 -0.8376 21.0979 182.7191)"
width="3.246" height="1.059"></rect><rect x="45.145" y="93.606"
transform="matrix(-0.8376 -0.5462 0.5462 -0.8376 34.5217 198.5331)"
width="3.246" height="1.059"></rect><rect x="13.426" y="72.914"
transform="matrix(-0.8376 -0.5463 0.5463 -0.8376 -12.4709 143.1784)"
width="3.246" height="1.059"></rect><rect x="31.551" y="84.738"
transform="matrix(-0.8374 -0.5465 0.5465 -0.8374 14.356 174.8051)" width="3.246"
height="1.059"></rect><rect x="22.489" y="78.826" transform="matrix(-0.8375
-0.5464 0.5464 -0.8375 0.9418 158.991)" width="3.246"
height="1.059"></rect><rect x="8.895" y="69.957" transform="matrix(-0.8374
-0.5465 0.5465 -0.8374 -19.1959 135.2646)" width="3.246"
height="1.06"></rect><rect x="67.445" y="81.628" transform="matrix(-0.6379
-0.7701 0.7701 -0.6379 47.2144 188.7149)" width="1.059"
height="3.257"></rect><rect x="59.078" y="88.549" transform="matrix(-0.6378
-0.7702 0.7702 -0.6378 28.1724 193.604)" width="1.059"
height="3.258"></rect><rect x="88.366" y="64.326" transform="matrix(-0.6381
-0.77 0.77 -0.6381 94.8362 176.4867)" width="1.059" height="3.258"></rect><rect
x="54.893" y="92.01" transform="matrix(-0.6379 -0.7701 0.7701 -0.6379 18.6607
196.0513)" width="1.059" height="3.258"></rect><rect x="63.262" y="85.089"
transform="matrix(-0.6373 -0.7706 0.7706 -0.6373 37.6226 191.1419)"
width="1.059" height="3.258"></rect><rect x="79.998" y="71.246"
transform="matrix(-0.6374 -0.7706 0.7706 -0.6374 75.698 181.3755)" width="1.059"
height="3.259"></rect><polygon points="75.426,77.782 77.936,75.706 77.261,74.891
74.912,76.833 73.977,74.206 72.979,74.561 74.071,77.629    75.02,77.292
"></polygon><rect x="71.63" y="78.168" transform="matrix(-0.6376 -0.7704 0.7704
-0.6376 56.6946 186.264)" width="1.059" height="3.258"></rect><rect x="84.182"
y="67.787" transform="matrix(-0.6371 -0.7708 0.7708 -0.6371 85.1763 178.9341)"
width="1.059" height="3.258"></rect><polygon points="92.94,60.851 92.35,61.091
92.288,61.029 92.145,61.174 91.959,61.25 91.992,61.33 91.544,61.784
92.259,62.487    91.487,63.125 92.162,63.941 93.386,62.929 93.048,62.521
93.539,62.322  "></polygon><rect x="80.258" y="30.772" transform="matrix(-0.9262
0.377 -0.377 -0.9262 167.8274 31.9489)" width="1.058"
height="3.256"></rect><rect x="78.212" y="25.746" transform="matrix(-0.926
0.3774 -0.3774 -0.926 161.9901 23.0028)" width="1.058"
height="3.255"></rect><rect x="88.442" y="50.876" transform="matrix(-0.9261
0.3773 -0.3773 -0.9261 191.1761 67.5635)" width="1.059"
height="3.256"></rect><rect x="84.349" y="40.824" transform="matrix(-0.9261
0.3773 -0.3773 -0.9261 179.5011 49.7458)" width="1.059"
height="3.257"></rect><rect x="86.396" y="45.851" transform="matrix(0.926
-0.3774 0.3774 0.926 -11.4907 36.3196)" width="1.058"
height="3.256"></rect><rect x="90.488" y="55.903" transform="matrix(0.926
-0.3774 0.3774 0.926 -14.9821 38.6076)" width="1.058"
height="3.255"></rect><rect x="74.119" y="15.692" transform="matrix(-0.9261
0.3773 -0.3773 -0.9261 150.3152 5.1988)" width="1.059"
height="3.256"></rect><polygon points="82.848,36.058 84.651,36.039 84.64,34.98
81.317,35.015 81.329,36.074 81.85,36.068 81.729,36.118 82.957,39.134
83.937,38.734  "></polygon><rect x="76.165" y="20.719" transform="matrix(-0.9263
0.3769 -0.3769 -0.9263 156.156 14.1421)" width="1.059"
height="3.256"></rect><rect x="26.621" y="11.129" transform="matrix(0.0152
0.9999 -0.9999 0.0152 39.379 -14.697)" width="1.059" height="3.027"></rect><rect
x="41.752" y="10.904" transform="matrix(0.0148 0.9999 -0.9999 0.0148 54.0734
-30.0424)" width="1.059" height="3.027"></rect><rect x="61.926" y="10.603"
transform="matrix(0.0143 0.9999 -0.9999 0.0143 73.6778 -50.5055)" width="1.059"
height="3.027"></rect><rect x="31.664" y="11.055" transform="matrix(0.0152
0.9999 -0.9999 0.0152 44.2708 -19.8137)" width="1.059"
height="3.027"></rect><rect x="51.839" y="10.754" transform="matrix(0.0152
0.9999 -0.9999 0.0152 63.837 -40.282)" width="1.059" height="3.027"></rect><rect
x="56.882" y="10.679" transform="matrix(0.0148 0.9999 -0.9999 0.0148 68.7551
-45.3932)" width="1.059" height="3.027"></rect><rect x="66.969" y="10.529"
transform="matrix(0.0143 0.9999 -0.9999 0.0143 78.5754 -55.6219)" width="1.06"
height="3.027"></rect><rect x="36.708" y="10.979" transform="matrix(0.0148
0.9999 -0.9999 0.0148 49.1793 -24.9254)" width="1.059"
height="3.026"></rect><rect x="19.466" y="66.962" width="2.966"
height="1.059"></rect><rect x="14.524" y="66.981" width="2.965"
height="1.059"></rect><rect x="9.582" y="67.001" width="2.965"
height="1.059"></rect><rect x="24.409" y="66.942" width="2.965"
height="1.059"></rect><rect x="29.351" y="66.923" transform="matrix(-1 0.004
-0.004 -1 61.9339 134.7824)" width="2.965" height="1.059"></rect><polygon
points="28.602,41.824 27.565,42.038 27.886,43.593 28.417,43.484 29.614,43.85
29.924,42.838 28.736,42.474  "></polygon><rect x="21.523" y="17.266"
transform="matrix(-0.2024 -0.9793 0.9793 -0.2024 10.3424 44.0149)" width="3.146"
height="1.059"></rect><rect x="24.706" y="32.672" transform="matrix(-0.2026
-0.9793 0.9793 -0.2026 -0.9108 65.6607)" width="3.146"
height="1.059"></rect><rect x="23.627" y="21.358" transform="matrix(-0.9793
0.2023 -0.2023 -0.9793 52.4537 40.5003)" width="1.06"
height="3.145"></rect><rect x="25.767" y="37.806" transform="matrix(0.2022
0.9793 -0.9793 0.2022 59.3551 3.8078)" width="3.146" height="1.059"></rect><rect
x="24.688" y="26.493" transform="matrix(-0.9794 0.2019 -0.2019 -0.9794 55.5826
50.4631)" width="1.059" height="3.146"></rect><polygon points="51.68,24.95
50.346,25.813 50.53,26.097 50.14,26.1 50.152,27.688 51.211,27.68 51.202,26.52
52.255,25.839  "></polygon><rect x="62.252" y="17.199" transform="matrix(-0.8397
0.5431 -0.5431 -0.8397 127.0369 -2.0481)" width="3.137"
height="1.059"></rect><rect x="54.511" y="21.838" transform="matrix(-0.5426
-0.84 0.84 -0.5426 65.2462 82.341)" width="1.059" height="3.137"></rect><rect
x="57.862" y="20.038" transform="matrix(-0.8396 0.5432 -0.5432 -0.8396 120.5024
5.5567)" width="3.137" height="1.059"></rect><rect x="66.642" y="14.36"
transform="matrix(-0.8397 0.543 -0.543 -0.8397 133.5731 -9.6494)" width="3.137"
height="1.059"></rect><polygon points="71.571,13.347 72.274,12.892 72.726,14.001
73.707,13.603 73.107,12.131 72.767,12.27 72.619,12.041 72.61,11.436
71.021,11.46 71.035,12.432 70.996,12.458  "></polygon><polygon
points="74.59,43.616 73.458,42.501 73.086,42.879 72.936,42.371 71.413,42.824
71.715,43.839 72.938,43.476 73.848,44.37     "></polygon><rect x="79.363"
y="50.191" transform="matrix(-0.7129 -0.7013 0.7013 -0.7129 103.2656 143.7227)"
width="3.386" height="1.059"></rect><rect x="87.408" y="58.107"
transform="matrix(-0.7128 -0.7014 0.7014 -0.7128 111.4827 162.9252)"
width="3.385" height="1.058"></rect><rect x="75.341" y="46.233"
transform="matrix(-0.7127 -0.7015 0.7015 -0.7127 99.1339 134.1273)"
width="3.386" height="1.059"></rect><rect x="83.386" y="54.149"
transform="matrix(-0.7128 -0.7014 0.7014 -0.7128 107.3697 153.3255)"
width="3.385" height="1.059"></rect><polygon points="63.707,68.925 64.323,67.461
63.835,67.255 64.255,66.934 63.289,65.673 62.448,66.317 63.227,67.333
62.73,68.514  "></polygon><rect x="55.931" y="81.635" transform="matrix(0.3881
-0.9216 0.9216 0.3881 -40.5085 103.3138)" width="3.242"
height="1.059"></rect><rect x="58.03" y="76.655" transform="matrix(-0.3883
0.9215 -0.9215 -0.3883 153.9424 52.1865)" width="3.242"
height="1.059"></rect><rect x="53.833" y="86.614" transform="matrix(-0.3882
0.9216 -0.9216 -0.3882 157.2916 69.8686)" width="3.243"
height="1.059"></rect><rect x="51.735" y="91.593" transform="matrix(0.3883
-0.9216 0.9216 0.3883 -52.2558 105.5259)" width="3.242"
height="1.059"></rect><rect x="60.128" y="71.675" transform="matrix(0.3884
-0.9215 0.9215 0.3884 -28.7715 101.0579)" width="3.242"
height="1.06"></rect><polygon points="52.375,95.815 52.246,95.76 52.157,95.652
52.101,95.699 51.399,95.403 51.028,96.283 50.229,95.762    49.651,96.649
50.981,97.517 51.271,97.073 51.608,97.481 52.832,96.469 52.347,95.883
"></polygon></g><circle cx="6.41" cy="35.047" r="2.928"></circle><circle
cx="32.979" cy="55.016" r="4.79"></circle><circle cx="93.05" cy="62.521"
r="2.928"></circle><circle cx="93.987" cy="35.409" r="2.926"></circle><circle
cx="51.27" cy="97.073" r="2.928"></circle><circle cx="6.015" cy="67.55"
r="2.928"></circle><circle cx="50.332" cy="49.641" r="5.511"></circle><circle
cx="39.816" cy="35" r="4.79"></circle><circle cx="60.904" cy="35.842"
r="4.79"></circle><circle cx="77.649" cy="86.109" r="2.926"></circle><circle
cx="50.635" cy="67.21" r="4.789"></circle><circle cx="66.735" cy="55.478"
r="4.79"></circle><circle cx="28.249" cy="42.879" r="2.028"></circle><circle
cx="50.633" cy="26.257" r="1.929"></circle><circle cx="35.881" cy="67.433"
r="2.127"></circle><circle cx="63.833" cy="67.255" r="2.053"></circle><circle
cx="50.032" cy="2.927" r="2.927"></circle><circle cx="72.616" cy="12.331"
r="2.928"></circle><circle cx="73.085" cy="42.879" r="2.226"></circle><circle
cx="23.331" cy="86.109" r="2.927"></circle><circle cx="22.031" cy="12.646"
r="2.928"></circle></svg>